<mxfile host="app.diagrams.net" agent="Mozilla/5.0 (Windows NT 10.0; Win64; x64) AppleWebKit/537.36 (KHTML, like Gecko) Chrome/130.0.0.0 Safari/537.36" version="24.8.3">
  <diagram name="Page-1" id="XAHnvTei2YGS_CoMUAeI">
    <mxGraphModel dx="5060" dy="868" grid="1" gridSize="11" guides="1" tooltips="1" connect="1" arrows="1" fold="1" page="1" pageScale="1" pageWidth="3300" pageHeight="2339" math="0" shadow="0">
      <root>
        <mxCell id="0" />
        <mxCell id="1" parent="0" />
        <mxCell id="8D82hLowt5-AXNt8W5h0-10" value="" style="edgeStyle=orthogonalEdgeStyle;rounded=0;orthogonalLoop=1;jettySize=auto;html=1;" edge="1" parent="1" source="9cVWXjBC3aL5t_oa88PG-2" target="8D82hLowt5-AXNt8W5h0-9">
          <mxGeometry relative="1" as="geometry" />
        </mxCell>
        <mxCell id="9cVWXjBC3aL5t_oa88PG-2" value="Ucesnik" style="rounded=0;whiteSpace=wrap;html=1;" parent="1" vertex="1">
          <mxGeometry x="701" y="344" width="120" height="60" as="geometry" />
        </mxCell>
        <mxCell id="9cVWXjBC3aL5t_oa88PG-13" value="" style="edgeStyle=orthogonalEdgeStyle;rounded=0;orthogonalLoop=1;jettySize=auto;html=1;entryX=0;entryY=0.5;entryDx=0;entryDy=0;exitX=0.644;exitY=0.95;exitDx=0;exitDy=0;exitPerimeter=0;" parent="1" source="9cVWXjBC3aL5t_oa88PG-4" target="9cVWXjBC3aL5t_oa88PG-2" edge="1">
          <mxGeometry relative="1" as="geometry">
            <mxPoint x="646" y="394" as="targetPoint" />
            <Array as="points">
              <mxPoint x="659" y="334" />
              <mxPoint x="661" y="334" />
              <mxPoint x="661" y="374" />
            </Array>
          </mxGeometry>
        </mxCell>
        <mxCell id="9cVWXjBC3aL5t_oa88PG-4" value="Ime" style="ellipse;whiteSpace=wrap;html=1;" parent="1" vertex="1">
          <mxGeometry x="601" y="254" width="90" height="60" as="geometry" />
        </mxCell>
        <mxCell id="9cVWXjBC3aL5t_oa88PG-14" value="" style="edgeStyle=orthogonalEdgeStyle;rounded=0;orthogonalLoop=1;jettySize=auto;html=1;" parent="1" source="9cVWXjBC3aL5t_oa88PG-5" target="9cVWXjBC3aL5t_oa88PG-2" edge="1">
          <mxGeometry relative="1" as="geometry" />
        </mxCell>
        <mxCell id="9cVWXjBC3aL5t_oa88PG-5" value="Prezime" style="ellipse;whiteSpace=wrap;html=1;" parent="1" vertex="1">
          <mxGeometry x="731" y="254" width="90" height="60" as="geometry" />
        </mxCell>
        <mxCell id="9cVWXjBC3aL5t_oa88PG-6" value="Datum_ragjanje" style="ellipse;whiteSpace=wrap;html=1;" parent="1" vertex="1">
          <mxGeometry x="831" y="154" width="90" height="60" as="geometry" />
        </mxCell>
        <mxCell id="9cVWXjBC3aL5t_oa88PG-17" value="" style="edgeStyle=orthogonalEdgeStyle;rounded=0;orthogonalLoop=1;jettySize=auto;html=1;exitX=0.5;exitY=1;exitDx=0;exitDy=0;entryX=1;entryY=0.5;entryDx=0;entryDy=0;" parent="1" source="9cVWXjBC3aL5t_oa88PG-7" target="9cVWXjBC3aL5t_oa88PG-2" edge="1">
          <mxGeometry relative="1" as="geometry">
            <mxPoint x="831" y="374" as="targetPoint" />
            <Array as="points">
              <mxPoint x="876" y="364" />
              <mxPoint x="832" y="364" />
              <mxPoint x="832" y="374" />
            </Array>
          </mxGeometry>
        </mxCell>
        <mxCell id="9cVWXjBC3aL5t_oa88PG-7" value="&lt;u&gt;Broj_pasos&lt;/u&gt;" style="ellipse;whiteSpace=wrap;html=1;strokeColor=#000000;" parent="1" vertex="1">
          <mxGeometry x="831" y="254" width="90" height="60" as="geometry" />
        </mxCell>
        <mxCell id="9cVWXjBC3aL5t_oa88PG-19" value="" style="edgeStyle=orthogonalEdgeStyle;rounded=0;orthogonalLoop=1;jettySize=auto;html=1;entryX=0;entryY=0;entryDx=0;entryDy=0;" parent="1" source="9cVWXjBC3aL5t_oa88PG-8" target="9cVWXjBC3aL5t_oa88PG-2" edge="1">
          <mxGeometry relative="1" as="geometry">
            <Array as="points">
              <mxPoint x="701" y="184" />
            </Array>
          </mxGeometry>
        </mxCell>
        <mxCell id="9cVWXjBC3aL5t_oa88PG-8" value="Pol" style="ellipse;whiteSpace=wrap;html=1;" parent="1" vertex="1">
          <mxGeometry x="601" y="154" width="90" height="60" as="geometry" />
        </mxCell>
        <mxCell id="9cVWXjBC3aL5t_oa88PG-9" value="Drzava" style="ellipse;whiteSpace=wrap;html=1;" parent="1" vertex="1">
          <mxGeometry x="716" y="154" width="90" height="60" as="geometry" />
        </mxCell>
        <mxCell id="9cVWXjBC3aL5t_oa88PG-21" value="" style="endArrow=classic;html=1;rounded=0;exitX=0;exitY=1;exitDx=0;exitDy=0;entryX=0.917;entryY=0;entryDx=0;entryDy=0;entryPerimeter=0;" parent="1" source="9cVWXjBC3aL5t_oa88PG-6" target="9cVWXjBC3aL5t_oa88PG-2" edge="1">
          <mxGeometry width="50" height="50" relative="1" as="geometry">
            <mxPoint x="761" y="364" as="sourcePoint" />
            <mxPoint x="811" y="314" as="targetPoint" />
          </mxGeometry>
        </mxCell>
        <mxCell id="9cVWXjBC3aL5t_oa88PG-22" value="" style="endArrow=classic;html=1;rounded=0;exitX=0;exitY=1;exitDx=0;exitDy=0;entryX=0.158;entryY=0.05;entryDx=0;entryDy=0;entryPerimeter=0;" parent="1" source="9cVWXjBC3aL5t_oa88PG-9" target="9cVWXjBC3aL5t_oa88PG-2" edge="1">
          <mxGeometry width="50" height="50" relative="1" as="geometry">
            <mxPoint x="761" y="364" as="sourcePoint" />
            <mxPoint x="811" y="314" as="targetPoint" />
          </mxGeometry>
        </mxCell>
        <mxCell id="8D82hLowt5-AXNt8W5h0-17" value="" style="edgeStyle=orthogonalEdgeStyle;rounded=0;orthogonalLoop=1;jettySize=auto;html=1;" edge="1" parent="1" source="9cVWXjBC3aL5t_oa88PG-23" target="8D82hLowt5-AXNt8W5h0-16">
          <mxGeometry relative="1" as="geometry" />
        </mxCell>
        <mxCell id="8D82hLowt5-AXNt8W5h0-167" value="" style="edgeStyle=orthogonalEdgeStyle;rounded=0;orthogonalLoop=1;jettySize=auto;html=1;" edge="1" parent="1" source="9cVWXjBC3aL5t_oa88PG-23" target="8D82hLowt5-AXNt8W5h0-166">
          <mxGeometry relative="1" as="geometry" />
        </mxCell>
        <mxCell id="9cVWXjBC3aL5t_oa88PG-23" value="Igrac" style="rounded=0;whiteSpace=wrap;html=1;" parent="1" vertex="1">
          <mxGeometry x="481" y="464" width="120" height="60" as="geometry" />
        </mxCell>
        <mxCell id="8D82hLowt5-AXNt8W5h0-78" value="" style="edgeStyle=orthogonalEdgeStyle;rounded=0;orthogonalLoop=1;jettySize=auto;html=1;" edge="1" parent="1" source="9cVWXjBC3aL5t_oa88PG-24" target="8D82hLowt5-AXNt8W5h0-77">
          <mxGeometry relative="1" as="geometry" />
        </mxCell>
        <mxCell id="8D82hLowt5-AXNt8W5h0-83" value="" style="edgeStyle=orthogonalEdgeStyle;rounded=0;orthogonalLoop=1;jettySize=auto;html=1;" edge="1" parent="1" source="9cVWXjBC3aL5t_oa88PG-24" target="8D82hLowt5-AXNt8W5h0-74">
          <mxGeometry relative="1" as="geometry" />
        </mxCell>
        <mxCell id="8D82hLowt5-AXNt8W5h0-215" value="" style="edgeStyle=orthogonalEdgeStyle;rounded=0;orthogonalLoop=1;jettySize=auto;html=1;" edge="1" parent="1" source="9cVWXjBC3aL5t_oa88PG-24" target="8D82hLowt5-AXNt8W5h0-214">
          <mxGeometry relative="1" as="geometry" />
        </mxCell>
        <mxCell id="9cVWXjBC3aL5t_oa88PG-24" value="Trener" style="rounded=0;whiteSpace=wrap;html=1;" parent="1" vertex="1">
          <mxGeometry x="882" y="554" width="120" height="60" as="geometry" />
        </mxCell>
        <mxCell id="8D82hLowt5-AXNt8W5h0-95" value="" style="edgeStyle=orthogonalEdgeStyle;rounded=0;orthogonalLoop=1;jettySize=auto;html=1;" edge="1" parent="1" target="8D82hLowt5-AXNt8W5h0-94">
          <mxGeometry relative="1" as="geometry">
            <mxPoint x="1140" y="448" as="sourcePoint" />
          </mxGeometry>
        </mxCell>
        <mxCell id="9cVWXjBC3aL5t_oa88PG-25" value="Sudija" style="rounded=0;whiteSpace=wrap;html=1;" parent="1" vertex="1">
          <mxGeometry x="1069" y="385" width="120" height="60" as="geometry" />
        </mxCell>
        <mxCell id="9cVWXjBC3aL5t_oa88PG-26" value="Godina_zap" style="ellipse;whiteSpace=wrap;html=1;" parent="1" vertex="1">
          <mxGeometry x="386" y="509" width="95" height="60" as="geometry" />
        </mxCell>
        <mxCell id="8D82hLowt5-AXNt8W5h0-4" value="" style="edgeStyle=orthogonalEdgeStyle;rounded=0;orthogonalLoop=1;jettySize=auto;html=1;" edge="1" parent="1" source="8D82hLowt5-AXNt8W5h0-1" target="9cVWXjBC3aL5t_oa88PG-24">
          <mxGeometry relative="1" as="geometry" />
        </mxCell>
        <mxCell id="8D82hLowt5-AXNt8W5h0-1" value="o" style="ellipse;whiteSpace=wrap;html=1;aspect=fixed;" vertex="1" parent="1">
          <mxGeometry x="766" y="474" width="40" height="40" as="geometry" />
        </mxCell>
        <mxCell id="8D82hLowt5-AXNt8W5h0-5" value="" style="endArrow=classic;html=1;rounded=0;exitX=0;exitY=0.5;exitDx=0;exitDy=0;entryX=1;entryY=0;entryDx=0;entryDy=0;" edge="1" parent="1" source="8D82hLowt5-AXNt8W5h0-1" target="9cVWXjBC3aL5t_oa88PG-23">
          <mxGeometry width="50" height="50" relative="1" as="geometry">
            <mxPoint x="521" y="444" as="sourcePoint" />
            <mxPoint x="571" y="394" as="targetPoint" />
          </mxGeometry>
        </mxCell>
        <mxCell id="8D82hLowt5-AXNt8W5h0-6" value="" style="endArrow=classic;html=1;rounded=0;exitX=1;exitY=0.5;exitDx=0;exitDy=0;entryX=0;entryY=0.5;entryDx=0;entryDy=0;" edge="1" parent="1" source="8D82hLowt5-AXNt8W5h0-9">
          <mxGeometry width="50" height="50" relative="1" as="geometry">
            <mxPoint x="521" y="444" as="sourcePoint" />
            <mxPoint x="1080" y="418" as="targetPoint" />
          </mxGeometry>
        </mxCell>
        <mxCell id="8D82hLowt5-AXNt8W5h0-15" value="" style="edgeStyle=orthogonalEdgeStyle;rounded=0;orthogonalLoop=1;jettySize=auto;html=1;" edge="1" parent="1" source="8D82hLowt5-AXNt8W5h0-9" target="8D82hLowt5-AXNt8W5h0-1">
          <mxGeometry relative="1" as="geometry">
            <Array as="points">
              <mxPoint x="746" y="445" />
              <mxPoint x="746" y="465" />
            </Array>
          </mxGeometry>
        </mxCell>
        <mxCell id="8D82hLowt5-AXNt8W5h0-9" value="d" style="ellipse;whiteSpace=wrap;html=1;aspect=fixed;" vertex="1" parent="1">
          <mxGeometry x="725.5" y="425" width="39" height="39" as="geometry" />
        </mxCell>
        <mxCell id="8D82hLowt5-AXNt8W5h0-16" value="Rangiran" style="rhombus;whiteSpace=wrap;html=1;" vertex="1" parent="1">
          <mxGeometry x="566" y="571" width="80" height="53" as="geometry" />
        </mxCell>
        <mxCell id="8D82hLowt5-AXNt8W5h0-18" value="" style="endArrow=classic;html=1;rounded=0;exitX=0;exitY=0.5;exitDx=0;exitDy=0;entryX=0.5;entryY=0;entryDx=0;entryDy=0;" edge="1" parent="1" source="9cVWXjBC3aL5t_oa88PG-23" target="9cVWXjBC3aL5t_oa88PG-26">
          <mxGeometry width="50" height="50" relative="1" as="geometry">
            <mxPoint x="750" y="581" as="sourcePoint" />
            <mxPoint x="800" y="531" as="targetPoint" />
          </mxGeometry>
        </mxCell>
        <mxCell id="8D82hLowt5-AXNt8W5h0-26" value="" style="endArrow=classic;html=1;rounded=0;exitX=1;exitY=1;exitDx=0;exitDy=0;entryX=0.25;entryY=1;entryDx=0;entryDy=0;" edge="1" parent="1" source="8D82hLowt5-AXNt8W5h0-16" target="8D82hLowt5-AXNt8W5h0-30">
          <mxGeometry width="50" height="50" relative="1" as="geometry">
            <mxPoint x="750" y="581" as="sourcePoint" />
            <mxPoint x="666" y="654.25" as="targetPoint" />
          </mxGeometry>
        </mxCell>
        <mxCell id="8D82hLowt5-AXNt8W5h0-28" value="" style="endArrow=classic;html=1;rounded=0;exitX=0.183;exitY=0.015;exitDx=0;exitDy=0;exitPerimeter=0;" edge="1" parent="1" source="8D82hLowt5-AXNt8W5h0-32">
          <mxGeometry width="50" height="50" relative="1" as="geometry">
            <mxPoint x="651" y="663" as="sourcePoint" />
            <mxPoint x="620" y="622" as="targetPoint" />
          </mxGeometry>
        </mxCell>
        <mxCell id="8D82hLowt5-AXNt8W5h0-30" value="M" style="text;html=1;align=center;verticalAlign=middle;whiteSpace=wrap;rounded=0;" vertex="1" parent="1">
          <mxGeometry x="631" y="624" width="60" height="30" as="geometry" />
        </mxCell>
        <mxCell id="8D82hLowt5-AXNt8W5h0-31" value="N" style="text;html=1;align=center;verticalAlign=middle;whiteSpace=wrap;rounded=0;" vertex="1" parent="1">
          <mxGeometry x="519" y="524" width="60" height="30" as="geometry" />
        </mxCell>
        <mxCell id="8D82hLowt5-AXNt8W5h0-32" value="Rang_mesto" style="rounded=0;whiteSpace=wrap;html=1;" vertex="1" parent="1">
          <mxGeometry x="601" y="658.75" width="120" height="60" as="geometry" />
        </mxCell>
        <mxCell id="8D82hLowt5-AXNt8W5h0-39" value="" style="edgeStyle=orthogonalEdgeStyle;rounded=0;orthogonalLoop=1;jettySize=auto;html=1;" edge="1" parent="1">
          <mxGeometry relative="1" as="geometry">
            <mxPoint x="507.33333333333326" y="653.9447916666666" as="sourcePoint" />
            <mxPoint x="506" y="723" as="targetPoint" />
          </mxGeometry>
        </mxCell>
        <mxCell id="8D82hLowt5-AXNt8W5h0-38" value="" style="endArrow=classic;html=1;rounded=0;entryX=0.5;entryY=0;entryDx=0;entryDy=0;exitX=0;exitY=0;exitDx=0;exitDy=0;" edge="1" parent="1" source="8D82hLowt5-AXNt8W5h0-31">
          <mxGeometry width="50" height="50" relative="1" as="geometry">
            <mxPoint x="522" y="553" as="sourcePoint" />
            <mxPoint x="527" y="608" as="targetPoint" />
          </mxGeometry>
        </mxCell>
        <mxCell id="8D82hLowt5-AXNt8W5h0-40" value="" style="edgeStyle=orthogonalEdgeStyle;rounded=0;orthogonalLoop=1;jettySize=auto;html=1;exitX=0.649;exitY=-0.011;exitDx=0;exitDy=0;exitPerimeter=0;entryX=0.544;entryY=0.83;entryDx=0;entryDy=0;entryPerimeter=0;" edge="1" parent="1" source="8D82hLowt5-AXNt8W5h0-52">
          <mxGeometry relative="1" as="geometry">
            <mxPoint x="526" y="661" as="sourcePoint" />
            <mxPoint x="510.77" y="644.99" as="targetPoint" />
            <Array as="points">
              <mxPoint x="526" y="728" />
              <mxPoint x="526" y="685" />
              <mxPoint x="541" y="685" />
              <mxPoint x="541" y="647" />
              <mxPoint x="519" y="647" />
            </Array>
          </mxGeometry>
        </mxCell>
        <mxCell id="8D82hLowt5-AXNt8W5h0-43" value="" style="endArrow=classic;html=1;rounded=0;entryX=0.25;entryY=0;entryDx=0;entryDy=0;exitX=1;exitY=0;exitDx=0;exitDy=0;" edge="1" parent="1" target="8D82hLowt5-AXNt8W5h0-31">
          <mxGeometry width="50" height="50" relative="1" as="geometry">
            <mxPoint x="527.25" y="614.25" as="sourcePoint" />
            <mxPoint x="538" y="619" as="targetPoint" />
          </mxGeometry>
        </mxCell>
        <mxCell id="8D82hLowt5-AXNt8W5h0-44" value="1" style="text;html=1;align=center;verticalAlign=middle;whiteSpace=wrap;rounded=0;" vertex="1" parent="1">
          <mxGeometry x="475.5" y="524" width="60" height="30" as="geometry" />
        </mxCell>
        <mxCell id="8D82hLowt5-AXNt8W5h0-45" value="1" style="text;html=1;align=center;verticalAlign=middle;whiteSpace=wrap;rounded=0;" vertex="1" parent="1">
          <mxGeometry x="456.5" y="685" width="60" height="30" as="geometry" />
        </mxCell>
        <mxCell id="8D82hLowt5-AXNt8W5h0-52" value="" style="rounded=0;whiteSpace=wrap;html=1;" vertex="1" parent="1">
          <mxGeometry x="455.5" y="729" width="120" height="60" as="geometry" />
        </mxCell>
        <mxCell id="8D82hLowt5-AXNt8W5h0-55" value="" style="edgeStyle=orthogonalEdgeStyle;rounded=0;orthogonalLoop=1;jettySize=auto;html=1;" edge="1" parent="1" source="8D82hLowt5-AXNt8W5h0-53" target="8D82hLowt5-AXNt8W5h0-54">
          <mxGeometry relative="1" as="geometry" />
        </mxCell>
        <mxCell id="8D82hLowt5-AXNt8W5h0-53" value="Rang_istorija" style="rounded=0;whiteSpace=wrap;html=1;" vertex="1" parent="1">
          <mxGeometry x="467.25" y="737" width="96.5" height="44" as="geometry" />
        </mxCell>
        <mxCell id="8D82hLowt5-AXNt8W5h0-54" value="Ima" style="rhombus;whiteSpace=wrap;html=1;" vertex="1" parent="1">
          <mxGeometry x="612" y="747.75" width="76.5" height="63.5" as="geometry" />
        </mxCell>
        <mxCell id="8D82hLowt5-AXNt8W5h0-56" value="" style="endArrow=classic;html=1;rounded=0;exitX=1;exitY=0.5;exitDx=0;exitDy=0;entryX=0.5;entryY=1;entryDx=0;entryDy=0;" edge="1" parent="1" source="8D82hLowt5-AXNt8W5h0-54" target="8D82hLowt5-AXNt8W5h0-32">
          <mxGeometry width="50" height="50" relative="1" as="geometry">
            <mxPoint x="882" y="658" as="sourcePoint" />
            <mxPoint x="932" y="608" as="targetPoint" />
          </mxGeometry>
        </mxCell>
        <mxCell id="8D82hLowt5-AXNt8W5h0-57" value="" style="endArrow=classic;html=1;rounded=0;exitX=0.642;exitY=0.126;exitDx=0;exitDy=0;exitPerimeter=0;entryX=1;entryY=1;entryDx=0;entryDy=0;" edge="1" parent="1" source="8D82hLowt5-AXNt8W5h0-16" target="9cVWXjBC3aL5t_oa88PG-23">
          <mxGeometry width="50" height="50" relative="1" as="geometry">
            <mxPoint x="882" y="658" as="sourcePoint" />
            <mxPoint x="932" y="608" as="targetPoint" />
          </mxGeometry>
        </mxCell>
        <mxCell id="8D82hLowt5-AXNt8W5h0-58" value="" style="endArrow=classic;html=1;rounded=0;exitX=0.35;exitY=1.019;exitDx=0;exitDy=0;entryX=0.865;entryY=0.32;entryDx=0;entryDy=0;exitPerimeter=0;entryPerimeter=0;" edge="1" parent="1" source="8D82hLowt5-AXNt8W5h0-32" target="8D82hLowt5-AXNt8W5h0-54">
          <mxGeometry width="50" height="50" relative="1" as="geometry">
            <mxPoint x="712" y="783" as="sourcePoint" />
            <mxPoint x="733" y="732" as="targetPoint" />
          </mxGeometry>
        </mxCell>
        <mxCell id="8D82hLowt5-AXNt8W5h0-59" value="" style="edgeStyle=orthogonalEdgeStyle;rounded=0;orthogonalLoop=1;jettySize=auto;html=1;entryX=1;entryY=0.75;entryDx=0;entryDy=0;exitX=0;exitY=1;exitDx=0;exitDy=0;" edge="1" parent="1" source="8D82hLowt5-AXNt8W5h0-54" target="8D82hLowt5-AXNt8W5h0-52">
          <mxGeometry relative="1" as="geometry">
            <mxPoint x="552" y="817" as="sourcePoint" />
            <mxPoint x="636" y="783" as="targetPoint" />
            <Array as="points">
              <mxPoint x="644" y="795" />
              <mxPoint x="585" y="795" />
              <mxPoint x="585" y="783" />
              <mxPoint x="575" y="783" />
            </Array>
          </mxGeometry>
        </mxCell>
        <mxCell id="8D82hLowt5-AXNt8W5h0-61" value="N" style="text;html=1;align=center;verticalAlign=middle;whiteSpace=wrap;rounded=0;" vertex="1" parent="1">
          <mxGeometry x="541" y="789" width="60" height="30" as="geometry" />
        </mxCell>
        <mxCell id="8D82hLowt5-AXNt8W5h0-63" value="M" style="text;html=1;align=center;verticalAlign=middle;whiteSpace=wrap;rounded=0;" vertex="1" parent="1">
          <mxGeometry x="656" y="718.75" width="60" height="30" as="geometry" />
        </mxCell>
        <mxCell id="8D82hLowt5-AXNt8W5h0-64" value="" style="endArrow=classic;html=1;rounded=0;entryX=0.75;entryY=1;entryDx=0;entryDy=0;exitX=0.718;exitY=0.179;exitDx=0;exitDy=0;exitPerimeter=0;" edge="1" parent="1" source="8D82hLowt5-AXNt8W5h0-9" target="9cVWXjBC3aL5t_oa88PG-2">
          <mxGeometry width="50" height="50" relative="1" as="geometry">
            <mxPoint x="882" y="658" as="sourcePoint" />
            <mxPoint x="932" y="608" as="targetPoint" />
          </mxGeometry>
        </mxCell>
        <mxCell id="8D82hLowt5-AXNt8W5h0-65" value="Poceten_datum" style="ellipse;whiteSpace=wrap;html=1;" vertex="1" parent="1">
          <mxGeometry x="588" y="850.5" width="88" height="55" as="geometry" />
        </mxCell>
        <mxCell id="8D82hLowt5-AXNt8W5h0-66" value="Kraen_datum" style="ellipse;whiteSpace=wrap;html=1;" vertex="1" parent="1">
          <mxGeometry x="701" y="841.5" width="88" height="55" as="geometry" />
        </mxCell>
        <mxCell id="8D82hLowt5-AXNt8W5h0-67" value="" style="endArrow=classic;html=1;rounded=0;entryX=1;entryY=1;entryDx=0;entryDy=0;exitX=0;exitY=0;exitDx=0;exitDy=0;" edge="1" parent="1" source="8D82hLowt5-AXNt8W5h0-66" target="8D82hLowt5-AXNt8W5h0-54">
          <mxGeometry width="50" height="50" relative="1" as="geometry">
            <mxPoint x="882" y="658" as="sourcePoint" />
            <mxPoint x="932" y="608" as="targetPoint" />
          </mxGeometry>
        </mxCell>
        <mxCell id="8D82hLowt5-AXNt8W5h0-68" value="" style="endArrow=classic;html=1;rounded=0;entryX=0.377;entryY=0.887;entryDx=0;entryDy=0;entryPerimeter=0;exitX=0.5;exitY=0;exitDx=0;exitDy=0;" edge="1" parent="1" source="8D82hLowt5-AXNt8W5h0-65" target="8D82hLowt5-AXNt8W5h0-54">
          <mxGeometry width="50" height="50" relative="1" as="geometry">
            <mxPoint x="650.6291099460814" y="828.5340314184959" as="sourcePoint" />
            <mxPoint x="640" y="804" as="targetPoint" />
            <Array as="points">
              <mxPoint x="653" y="822" />
            </Array>
          </mxGeometry>
        </mxCell>
        <mxCell id="8D82hLowt5-AXNt8W5h0-69" value="" style="rhombus;whiteSpace=wrap;html=1;" vertex="1" parent="1">
          <mxGeometry x="460" y="588" width="99" height="66" as="geometry" />
        </mxCell>
        <mxCell id="8D82hLowt5-AXNt8W5h0-70" value="Ima_istorija" style="rhombus;whiteSpace=wrap;html=1;" vertex="1" parent="1">
          <mxGeometry x="471" y="593.5" width="77" height="55" as="geometry" />
        </mxCell>
        <mxCell id="8D82hLowt5-AXNt8W5h0-71" value="" style="rhombus;whiteSpace=wrap;html=1;" vertex="1" parent="1">
          <mxGeometry x="882" y="657" width="80" height="61" as="geometry" />
        </mxCell>
        <mxCell id="8D82hLowt5-AXNt8W5h0-72" value="" style="rhombus;whiteSpace=wrap;html=1;" vertex="1" parent="1">
          <mxGeometry x="889" y="662.5" width="66" height="52.5" as="geometry" />
        </mxCell>
        <mxCell id="8D82hLowt5-AXNt8W5h0-84" value="" style="edgeStyle=orthogonalEdgeStyle;rounded=0;orthogonalLoop=1;jettySize=auto;html=1;" edge="1" parent="1" source="8D82hLowt5-AXNt8W5h0-74" target="8D82hLowt5-AXNt8W5h0-75">
          <mxGeometry relative="1" as="geometry" />
        </mxCell>
        <mxCell id="8D82hLowt5-AXNt8W5h0-74" value="Ima_istorija" style="text;html=1;align=center;verticalAlign=middle;whiteSpace=wrap;rounded=0;" vertex="1" parent="1">
          <mxGeometry x="895" y="673.75" width="60" height="30" as="geometry" />
        </mxCell>
        <mxCell id="8D82hLowt5-AXNt8W5h0-75" value="Trener_istorija" style="rounded=0;whiteSpace=wrap;html=1;" vertex="1" parent="1">
          <mxGeometry x="865" y="759" width="120" height="60" as="geometry" />
        </mxCell>
        <mxCell id="8D82hLowt5-AXNt8W5h0-76" value="Trenira&lt;span style=&quot;color: rgba(0, 0, 0, 0); font-family: monospace; font-size: 0px; text-align: start; text-wrap-mode: nowrap;&quot;&gt;%3CmxGraphModel%3E%3Croot%3E%3CmxCell%20id%3D%220%22%2F%3E%3CmxCell%20id%3D%221%22%20parent%3D%220%22%2F%3E%3CmxCell%20id%3D%222%22%20value%3D%22%22%20style%3D%22rhombus%3BwhiteSpace%3Dwrap%3Bhtml%3D1%3B%22%20vertex%3D%221%22%20parent%3D%221%22%3E%3CmxGeometry%20x%3D%22550%22%20y%3D%22583%22%20width%3D%2280%22%20height%3D%2280%22%20as%3D%22geometry%22%2F%3E%3C%2FmxCell%3E%3C%2Froot%3E%3C%2FmxGraphModel%3E&lt;/span&gt;" style="rhombus;whiteSpace=wrap;html=1;" vertex="1" parent="1">
          <mxGeometry x="750" y="605.5" width="88" height="55" as="geometry" />
        </mxCell>
        <mxCell id="8D82hLowt5-AXNt8W5h0-77" value="Trenira" style="rhombus;whiteSpace=wrap;html=1;" vertex="1" parent="1">
          <mxGeometry x="747.5" y="542" width="77" height="55" as="geometry" />
        </mxCell>
        <mxCell id="8D82hLowt5-AXNt8W5h0-80" value="" style="endArrow=classic;html=1;rounded=0;exitX=0;exitY=0.5;exitDx=0;exitDy=0;entryX=1;entryY=0.25;entryDx=0;entryDy=0;" edge="1" parent="1" source="8D82hLowt5-AXNt8W5h0-77" target="9cVWXjBC3aL5t_oa88PG-23">
          <mxGeometry width="50" height="50" relative="1" as="geometry">
            <mxPoint x="882" y="658" as="sourcePoint" />
            <mxPoint x="932" y="608" as="targetPoint" />
          </mxGeometry>
        </mxCell>
        <mxCell id="8D82hLowt5-AXNt8W5h0-81" value="N" style="text;html=1;align=center;verticalAlign=middle;whiteSpace=wrap;rounded=0;" vertex="1" parent="1">
          <mxGeometry x="838" y="558" width="60" height="30" as="geometry" />
        </mxCell>
        <mxCell id="8D82hLowt5-AXNt8W5h0-82" value="M" style="text;html=1;align=center;verticalAlign=middle;whiteSpace=wrap;rounded=0;" vertex="1" parent="1">
          <mxGeometry x="616" y="484" width="60" height="30" as="geometry" />
        </mxCell>
        <mxCell id="8D82hLowt5-AXNt8W5h0-85" value="" style="endArrow=classic;html=1;rounded=0;exitX=0.6;exitY=0.05;exitDx=0;exitDy=0;exitPerimeter=0;" edge="1" parent="1" source="8D82hLowt5-AXNt8W5h0-75">
          <mxGeometry width="50" height="50" relative="1" as="geometry">
            <mxPoint x="882" y="658" as="sourcePoint" />
            <mxPoint x="937" y="707" as="targetPoint" />
          </mxGeometry>
        </mxCell>
        <mxCell id="8D82hLowt5-AXNt8W5h0-86" value="1" style="text;html=1;align=center;verticalAlign=middle;whiteSpace=wrap;rounded=0;" vertex="1" parent="1">
          <mxGeometry x="895" y="614" width="60" height="30" as="geometry" />
        </mxCell>
        <mxCell id="8D82hLowt5-AXNt8W5h0-87" value="1" style="text;html=1;align=center;verticalAlign=middle;whiteSpace=wrap;rounded=0;" vertex="1" parent="1">
          <mxGeometry x="882" y="729" width="60" height="30" as="geometry" />
        </mxCell>
        <mxCell id="8D82hLowt5-AXNt8W5h0-88" value="" style="endArrow=classic;html=1;rounded=0;exitX=0.081;exitY=-0.044;exitDx=0;exitDy=0;exitPerimeter=0;entryX=1;entryY=1;entryDx=0;entryDy=0;" edge="1" parent="1" source="8D82hLowt5-AXNt8W5h0-75" target="8D82hLowt5-AXNt8W5h0-76">
          <mxGeometry width="50" height="50" relative="1" as="geometry">
            <mxPoint x="882" y="658" as="sourcePoint" />
            <mxPoint x="932" y="608" as="targetPoint" />
          </mxGeometry>
        </mxCell>
        <mxCell id="8D82hLowt5-AXNt8W5h0-89" value="" style="endArrow=classic;html=1;rounded=0;exitX=0.614;exitY=0.852;exitDx=0;exitDy=0;exitPerimeter=0;" edge="1" parent="1" source="8D82hLowt5-AXNt8W5h0-76">
          <mxGeometry width="50" height="50" relative="1" as="geometry">
            <mxPoint x="886" y="767" as="sourcePoint" />
            <mxPoint x="860" y="762" as="targetPoint" />
          </mxGeometry>
        </mxCell>
        <mxCell id="8D82hLowt5-AXNt8W5h0-90" value="" style="endArrow=classic;html=1;rounded=0;exitX=0;exitY=0;exitDx=0;exitDy=0;" edge="1" parent="1" source="8D82hLowt5-AXNt8W5h0-76">
          <mxGeometry width="50" height="50" relative="1" as="geometry">
            <mxPoint x="716" y="644" as="sourcePoint" />
            <mxPoint x="607" y="509" as="targetPoint" />
          </mxGeometry>
        </mxCell>
        <mxCell id="8D82hLowt5-AXNt8W5h0-92" value="N" style="text;html=1;align=center;verticalAlign=middle;whiteSpace=wrap;rounded=0;" vertex="1" parent="1">
          <mxGeometry x="861" y="729" width="60" height="30" as="geometry" />
        </mxCell>
        <mxCell id="8D82hLowt5-AXNt8W5h0-93" value="M" style="text;html=1;align=center;verticalAlign=middle;whiteSpace=wrap;rounded=0;" vertex="1" parent="1">
          <mxGeometry x="620.25" y="515.75" width="60" height="30" as="geometry" />
        </mxCell>
        <mxCell id="8D82hLowt5-AXNt8W5h0-94" value="Iskustvo" style="ellipse;whiteSpace=wrap;html=1;" vertex="1" parent="1">
          <mxGeometry x="1069" y="479" width="110" height="55" as="geometry" />
        </mxCell>
        <mxCell id="8D82hLowt5-AXNt8W5h0-100" value="" style="edgeStyle=orthogonalEdgeStyle;rounded=0;orthogonalLoop=1;jettySize=auto;html=1;" edge="1" parent="1" source="8D82hLowt5-AXNt8W5h0-96" target="8D82hLowt5-AXNt8W5h0-99">
          <mxGeometry relative="1" as="geometry">
            <Array as="points">
              <mxPoint x="275" y="564" />
              <mxPoint x="285" y="564" />
            </Array>
          </mxGeometry>
        </mxCell>
        <mxCell id="8D82hLowt5-AXNt8W5h0-104" value="" style="edgeStyle=orthogonalEdgeStyle;rounded=0;orthogonalLoop=1;jettySize=auto;html=1;" edge="1" parent="1" source="8D82hLowt5-AXNt8W5h0-96" target="8D82hLowt5-AXNt8W5h0-103">
          <mxGeometry relative="1" as="geometry" />
        </mxCell>
        <mxCell id="8D82hLowt5-AXNt8W5h0-115" value="" style="edgeStyle=orthogonalEdgeStyle;rounded=0;orthogonalLoop=1;jettySize=auto;html=1;" edge="1" parent="1" source="8D82hLowt5-AXNt8W5h0-96" target="8D82hLowt5-AXNt8W5h0-110">
          <mxGeometry relative="1" as="geometry" />
        </mxCell>
        <mxCell id="8D82hLowt5-AXNt8W5h0-128" value="" style="edgeStyle=orthogonalEdgeStyle;rounded=0;orthogonalLoop=1;jettySize=auto;html=1;" edge="1" parent="1" source="8D82hLowt5-AXNt8W5h0-96" target="8D82hLowt5-AXNt8W5h0-126">
          <mxGeometry relative="1" as="geometry" />
        </mxCell>
        <mxCell id="8D82hLowt5-AXNt8W5h0-96" value="Turnir" style="rounded=0;whiteSpace=wrap;html=1;" vertex="1" parent="1">
          <mxGeometry x="165" y="454" width="120" height="60" as="geometry" />
        </mxCell>
        <mxCell id="8D82hLowt5-AXNt8W5h0-97" value="Ime" style="ellipse;whiteSpace=wrap;html=1;" vertex="1" parent="1">
          <mxGeometry x="165" y="542" width="88" height="49" as="geometry" />
        </mxCell>
        <mxCell id="8D82hLowt5-AXNt8W5h0-99" value="Tip" style="ellipse;whiteSpace=wrap;html=1;" vertex="1" parent="1">
          <mxGeometry x="241" y="588" width="88" height="49" as="geometry" />
        </mxCell>
        <mxCell id="8D82hLowt5-AXNt8W5h0-101" value="" style="endArrow=classic;html=1;rounded=0;exitX=0.25;exitY=1;exitDx=0;exitDy=0;" edge="1" parent="1" source="8D82hLowt5-AXNt8W5h0-96">
          <mxGeometry width="50" height="50" relative="1" as="geometry">
            <mxPoint x="187" y="462" as="sourcePoint" />
            <mxPoint x="198" y="550" as="targetPoint" />
          </mxGeometry>
        </mxCell>
        <mxCell id="8D82hLowt5-AXNt8W5h0-102" style="edgeStyle=orthogonalEdgeStyle;rounded=0;orthogonalLoop=1;jettySize=auto;html=1;exitX=0.5;exitY=1;exitDx=0;exitDy=0;" edge="1" parent="1" source="8D82hLowt5-AXNt8W5h0-99" target="8D82hLowt5-AXNt8W5h0-99">
          <mxGeometry relative="1" as="geometry" />
        </mxCell>
        <mxCell id="8D82hLowt5-AXNt8W5h0-105" value="" style="edgeStyle=orthogonalEdgeStyle;rounded=0;orthogonalLoop=1;jettySize=auto;html=1;entryX=0;entryY=0.25;entryDx=0;entryDy=0;" edge="1" parent="1" source="8D82hLowt5-AXNt8W5h0-103" target="9cVWXjBC3aL5t_oa88PG-23">
          <mxGeometry relative="1" as="geometry" />
        </mxCell>
        <mxCell id="8D82hLowt5-AXNt8W5h0-103" value="Naj_igrac" style="rhombus;whiteSpace=wrap;html=1;" vertex="1" parent="1">
          <mxGeometry x="341" y="456" width="80" height="58" as="geometry" />
        </mxCell>
        <mxCell id="8D82hLowt5-AXNt8W5h0-106" value="Pobedi" style="ellipse;whiteSpace=wrap;html=1;" vertex="1" parent="1">
          <mxGeometry x="297" y="515.75" width="77" height="49.25" as="geometry" />
        </mxCell>
        <mxCell id="8D82hLowt5-AXNt8W5h0-107" value="" style="endArrow=classic;html=1;rounded=0;entryX=0;entryY=1;entryDx=0;entryDy=0;exitX=0.684;exitY=0.107;exitDx=0;exitDy=0;exitPerimeter=0;" edge="1" parent="1" source="8D82hLowt5-AXNt8W5h0-106" target="8D82hLowt5-AXNt8W5h0-103">
          <mxGeometry width="50" height="50" relative="1" as="geometry">
            <mxPoint x="561" y="677" as="sourcePoint" />
            <mxPoint x="611" y="627" as="targetPoint" />
          </mxGeometry>
        </mxCell>
        <mxCell id="8D82hLowt5-AXNt8W5h0-108" value="1" style="text;html=1;align=center;verticalAlign=middle;whiteSpace=wrap;rounded=0;" vertex="1" parent="1">
          <mxGeometry x="429" y="454" width="60" height="30" as="geometry" />
        </mxCell>
        <mxCell id="8D82hLowt5-AXNt8W5h0-109" value="N" style="text;html=1;align=center;verticalAlign=middle;whiteSpace=wrap;rounded=0;" vertex="1" parent="1">
          <mxGeometry x="264" y="456" width="60" height="30" as="geometry" />
        </mxCell>
        <mxCell id="8D82hLowt5-AXNt8W5h0-110" value="Odrzuva" style="rhombus;whiteSpace=wrap;html=1;" vertex="1" parent="1">
          <mxGeometry x="44" y="454" width="77" height="60" as="geometry" />
        </mxCell>
        <mxCell id="8D82hLowt5-AXNt8W5h0-117" value="" style="edgeStyle=orthogonalEdgeStyle;rounded=0;orthogonalLoop=1;jettySize=auto;html=1;" edge="1" parent="1" source="8D82hLowt5-AXNt8W5h0-112">
          <mxGeometry relative="1" as="geometry">
            <mxPoint x="65.5" y="654" as="targetPoint" />
          </mxGeometry>
        </mxCell>
        <mxCell id="8D82hLowt5-AXNt8W5h0-112" value="Teren" style="rounded=0;whiteSpace=wrap;html=1;" vertex="1" parent="1">
          <mxGeometry x="22" y="538.5" width="121" height="55" as="geometry" />
        </mxCell>
        <mxCell id="8D82hLowt5-AXNt8W5h0-113" value="Tip" style="ellipse;whiteSpace=wrap;html=1;" vertex="1" parent="1">
          <mxGeometry x="99" y="725.5" width="87" height="55.5" as="geometry" />
        </mxCell>
        <mxCell id="8D82hLowt5-AXNt8W5h0-114" value="Sedista" style="ellipse;whiteSpace=wrap;html=1;" vertex="1" parent="1">
          <mxGeometry x="154" y="648.5" width="87" height="55.5" as="geometry" />
        </mxCell>
        <mxCell id="8D82hLowt5-AXNt8W5h0-116" value="" style="endArrow=classic;html=1;rounded=0;exitX=0.5;exitY=1;exitDx=0;exitDy=0;entryX=0.5;entryY=0;entryDx=0;entryDy=0;" edge="1" parent="1" source="8D82hLowt5-AXNt8W5h0-110" target="8D82hLowt5-AXNt8W5h0-112">
          <mxGeometry width="50" height="50" relative="1" as="geometry">
            <mxPoint x="374" y="578" as="sourcePoint" />
            <mxPoint x="424" y="528" as="targetPoint" />
          </mxGeometry>
        </mxCell>
        <mxCell id="8D82hLowt5-AXNt8W5h0-118" value="" style="endArrow=classic;html=1;rounded=0;exitX=0.669;exitY=1.015;exitDx=0;exitDy=0;exitPerimeter=0;entryX=0.379;entryY=0.009;entryDx=0;entryDy=0;entryPerimeter=0;" edge="1" parent="1" source="8D82hLowt5-AXNt8W5h0-112" target="8D82hLowt5-AXNt8W5h0-113">
          <mxGeometry width="50" height="50" relative="1" as="geometry">
            <mxPoint x="374" y="578" as="sourcePoint" />
            <mxPoint x="424" y="528" as="targetPoint" />
          </mxGeometry>
        </mxCell>
        <mxCell id="8D82hLowt5-AXNt8W5h0-119" value="" style="endArrow=classic;html=1;rounded=0;exitX=0.75;exitY=1;exitDx=0;exitDy=0;entryX=0;entryY=0;entryDx=0;entryDy=0;" edge="1" parent="1" source="8D82hLowt5-AXNt8W5h0-112" target="8D82hLowt5-AXNt8W5h0-114">
          <mxGeometry width="50" height="50" relative="1" as="geometry">
            <mxPoint x="114" y="605" as="sourcePoint" />
            <mxPoint x="143" y="737" as="targetPoint" />
          </mxGeometry>
        </mxCell>
        <mxCell id="8D82hLowt5-AXNt8W5h0-120" value="N" style="text;html=1;align=center;verticalAlign=middle;whiteSpace=wrap;rounded=0;" vertex="1" parent="1">
          <mxGeometry x="112.5" y="456" width="60" height="30" as="geometry" />
        </mxCell>
        <mxCell id="8D82hLowt5-AXNt8W5h0-121" value="M" style="text;html=1;align=center;verticalAlign=middle;whiteSpace=wrap;rounded=0;" vertex="1" parent="1">
          <mxGeometry x="72" y="512" width="60" height="30" as="geometry" />
        </mxCell>
        <mxCell id="8D82hLowt5-AXNt8W5h0-122" value="&lt;u&gt;Ime&lt;/u&gt;" style="ellipse;whiteSpace=wrap;html=1;" vertex="1" parent="1">
          <mxGeometry x="22" y="654" width="87" height="55.5" as="geometry" />
        </mxCell>
        <mxCell id="8D82hLowt5-AXNt8W5h0-124" value="" style="rhombus;whiteSpace=wrap;html=1;" vertex="1" parent="1">
          <mxGeometry x="176" y="352" width="88" height="73" as="geometry" />
        </mxCell>
        <mxCell id="8D82hLowt5-AXNt8W5h0-131" value="" style="edgeStyle=orthogonalEdgeStyle;rounded=0;orthogonalLoop=1;jettySize=auto;html=1;" edge="1" parent="1" source="8D82hLowt5-AXNt8W5h0-126" target="8D82hLowt5-AXNt8W5h0-130">
          <mxGeometry relative="1" as="geometry" />
        </mxCell>
        <mxCell id="8D82hLowt5-AXNt8W5h0-126" value="Odrzuva" style="rhombus;whiteSpace=wrap;html=1;" vertex="1" parent="1">
          <mxGeometry x="181.5" y="358.5" width="77" height="60" as="geometry" />
        </mxCell>
        <mxCell id="8D82hLowt5-AXNt8W5h0-145" value="" style="edgeStyle=orthogonalEdgeStyle;rounded=0;orthogonalLoop=1;jettySize=auto;html=1;" edge="1" parent="1" source="8D82hLowt5-AXNt8W5h0-129" target="8D82hLowt5-AXNt8W5h0-144">
          <mxGeometry relative="1" as="geometry" />
        </mxCell>
        <mxCell id="8D82hLowt5-AXNt8W5h0-129" value="" style="rounded=0;whiteSpace=wrap;html=1;" vertex="1" parent="1">
          <mxGeometry x="172.5" y="253" width="120" height="60" as="geometry" />
        </mxCell>
        <mxCell id="8D82hLowt5-AXNt8W5h0-130" value="Odrzan_turnir" style="rounded=0;whiteSpace=wrap;html=1;" vertex="1" parent="1">
          <mxGeometry x="181.5" y="261" width="99" height="44" as="geometry" />
        </mxCell>
        <mxCell id="8D82hLowt5-AXNt8W5h0-132" value="" style="endArrow=classic;html=1;rounded=0;entryX=0.5;entryY=1;entryDx=0;entryDy=0;" edge="1" parent="1" source="8D82hLowt5-AXNt8W5h0-124" target="8D82hLowt5-AXNt8W5h0-129">
          <mxGeometry width="50" height="50" relative="1" as="geometry">
            <mxPoint x="374" y="347" as="sourcePoint" />
            <mxPoint x="424" y="297" as="targetPoint" />
            <Array as="points">
              <mxPoint x="242" y="341" />
            </Array>
          </mxGeometry>
        </mxCell>
        <mxCell id="8D82hLowt5-AXNt8W5h0-133" value="1" style="text;html=1;align=center;verticalAlign=middle;whiteSpace=wrap;rounded=0;" vertex="1" parent="1">
          <mxGeometry x="202.5" y="429.5" width="60" height="30" as="geometry" />
        </mxCell>
        <mxCell id="8D82hLowt5-AXNt8W5h0-134" value="N" style="text;html=1;align=center;verticalAlign=middle;whiteSpace=wrap;rounded=0;" vertex="1" parent="1">
          <mxGeometry x="220.5" y="314" width="60" height="30" as="geometry" />
        </mxCell>
        <mxCell id="8D82hLowt5-AXNt8W5h0-135" value="Datum_od" style="ellipse;whiteSpace=wrap;html=1;" vertex="1" parent="1">
          <mxGeometry x="11" y="275" width="88" height="55" as="geometry" />
        </mxCell>
        <mxCell id="8D82hLowt5-AXNt8W5h0-136" value="Datum_do" style="ellipse;whiteSpace=wrap;html=1;" vertex="1" parent="1">
          <mxGeometry x="22" y="206" width="88" height="55" as="geometry" />
        </mxCell>
        <mxCell id="8D82hLowt5-AXNt8W5h0-137" value="Sponor" style="ellipse;whiteSpace=wrap;html=1;" vertex="1" parent="1">
          <mxGeometry x="22" y="132" width="88" height="61" as="geometry" />
        </mxCell>
        <mxCell id="8D82hLowt5-AXNt8W5h0-139" value="" style="endArrow=classic;html=1;rounded=0;exitX=0.5;exitY=1;exitDx=0;exitDy=0;entryX=0;entryY=0.75;entryDx=0;entryDy=0;" edge="1" parent="1" source="8D82hLowt5-AXNt8W5h0-135" target="8D82hLowt5-AXNt8W5h0-129">
          <mxGeometry width="50" height="50" relative="1" as="geometry">
            <mxPoint x="374" y="347" as="sourcePoint" />
            <mxPoint x="424" y="297" as="targetPoint" />
          </mxGeometry>
        </mxCell>
        <mxCell id="8D82hLowt5-AXNt8W5h0-140" value="" style="endArrow=classic;html=1;rounded=0;exitX=0.5;exitY=1;exitDx=0;exitDy=0;" edge="1" parent="1" source="8D82hLowt5-AXNt8W5h0-136">
          <mxGeometry width="50" height="50" relative="1" as="geometry">
            <mxPoint x="127" y="225" as="sourcePoint" />
            <mxPoint x="165" y="275" as="targetPoint" />
          </mxGeometry>
        </mxCell>
        <mxCell id="8D82hLowt5-AXNt8W5h0-141" value="" style="endArrow=classic;html=1;rounded=0;exitX=0;exitY=1;exitDx=0;exitDy=0;entryX=0;entryY=0;entryDx=0;entryDy=0;" edge="1" parent="1" source="8D82hLowt5-AXNt8W5h0-137" target="8D82hLowt5-AXNt8W5h0-129">
          <mxGeometry width="50" height="50" relative="1" as="geometry">
            <mxPoint x="138" y="236" as="sourcePoint" />
            <mxPoint x="281" y="261" as="targetPoint" />
          </mxGeometry>
        </mxCell>
        <mxCell id="8D82hLowt5-AXNt8W5h0-142" value="Natprevar" style="rounded=0;whiteSpace=wrap;html=1;" vertex="1" parent="1">
          <mxGeometry x="365" y="110" width="120" height="60" as="geometry" />
        </mxCell>
        <mxCell id="8D82hLowt5-AXNt8W5h0-143" value="" style="rhombus;whiteSpace=wrap;html=1;" vertex="1" parent="1">
          <mxGeometry x="181.5" y="159" width="88" height="61" as="geometry" />
        </mxCell>
        <mxCell id="8D82hLowt5-AXNt8W5h0-144" value="Igra" style="rhombus;whiteSpace=wrap;html=1;" vertex="1" parent="1">
          <mxGeometry x="192.5" y="170" width="60.5" height="39" as="geometry" />
        </mxCell>
        <mxCell id="8D82hLowt5-AXNt8W5h0-146" value="" style="endArrow=classic;html=1;rounded=0;exitX=0.699;exitY=0.907;exitDx=0;exitDy=0;exitPerimeter=0;entryX=0.75;entryY=0;entryDx=0;entryDy=0;" edge="1" parent="1" source="8D82hLowt5-AXNt8W5h0-143" target="8D82hLowt5-AXNt8W5h0-130">
          <mxGeometry width="50" height="50" relative="1" as="geometry">
            <mxPoint x="319" y="292" as="sourcePoint" />
            <mxPoint x="369" y="242" as="targetPoint" />
          </mxGeometry>
        </mxCell>
        <mxCell id="8D82hLowt5-AXNt8W5h0-147" value="" style="endArrow=classic;html=1;rounded=0;entryX=0;entryY=0.5;entryDx=0;entryDy=0;exitX=0.5;exitY=0;exitDx=0;exitDy=0;" edge="1" parent="1" source="8D82hLowt5-AXNt8W5h0-143" target="8D82hLowt5-AXNt8W5h0-142">
          <mxGeometry width="50" height="50" relative="1" as="geometry">
            <mxPoint x="319" y="292" as="sourcePoint" />
            <mxPoint x="369" y="242" as="targetPoint" />
          </mxGeometry>
        </mxCell>
        <mxCell id="8D82hLowt5-AXNt8W5h0-148" value="" style="endArrow=classic;html=1;rounded=0;entryX=0.653;entryY=0.142;entryDx=0;entryDy=0;entryPerimeter=0;" edge="1" parent="1" target="8D82hLowt5-AXNt8W5h0-143">
          <mxGeometry width="50" height="50" relative="1" as="geometry">
            <mxPoint x="363" y="154" as="sourcePoint" />
            <mxPoint x="374" y="198" as="targetPoint" />
          </mxGeometry>
        </mxCell>
        <mxCell id="8D82hLowt5-AXNt8W5h0-149" value="1" style="text;html=1;align=center;verticalAlign=middle;whiteSpace=wrap;rounded=0;" vertex="1" parent="1">
          <mxGeometry x="232.5" y="224" width="60" height="30" as="geometry" />
        </mxCell>
        <mxCell id="8D82hLowt5-AXNt8W5h0-150" value="N" style="text;html=1;align=center;verticalAlign=middle;whiteSpace=wrap;rounded=0;" vertex="1" parent="1">
          <mxGeometry x="314" y="110" width="60" height="30" as="geometry" />
        </mxCell>
        <mxCell id="8D82hLowt5-AXNt8W5h0-154" value="" style="edgeStyle=orthogonalEdgeStyle;rounded=0;orthogonalLoop=1;jettySize=auto;html=1;entryX=0;entryY=0;entryDx=0;entryDy=0;exitX=0.745;exitY=0.924;exitDx=0;exitDy=0;exitPerimeter=0;" edge="1" parent="1" source="8D82hLowt5-AXNt8W5h0-151" target="8D82hLowt5-AXNt8W5h0-142">
          <mxGeometry relative="1" as="geometry">
            <Array as="points">
              <mxPoint x="341" y="61" />
              <mxPoint x="341" y="88" />
              <mxPoint x="365" y="88" />
            </Array>
          </mxGeometry>
        </mxCell>
        <mxCell id="8D82hLowt5-AXNt8W5h0-151" value="Vreme_pocetok" style="ellipse;whiteSpace=wrap;html=1;" vertex="1" parent="1">
          <mxGeometry x="253" width="110" height="66" as="geometry" />
        </mxCell>
        <mxCell id="8D82hLowt5-AXNt8W5h0-155" value="" style="edgeStyle=orthogonalEdgeStyle;rounded=0;orthogonalLoop=1;jettySize=auto;html=1;" edge="1" parent="1" source="8D82hLowt5-AXNt8W5h0-152" target="8D82hLowt5-AXNt8W5h0-142">
          <mxGeometry relative="1" as="geometry" />
        </mxCell>
        <mxCell id="8D82hLowt5-AXNt8W5h0-152" value="Vreme_kraj" style="ellipse;whiteSpace=wrap;html=1;" vertex="1" parent="1">
          <mxGeometry x="371" width="110" height="66" as="geometry" />
        </mxCell>
        <mxCell id="8D82hLowt5-AXNt8W5h0-153" value="Kraen_rez" style="ellipse;whiteSpace=wrap;html=1;" vertex="1" parent="1">
          <mxGeometry x="494" width="110" height="66" as="geometry" />
        </mxCell>
        <mxCell id="8D82hLowt5-AXNt8W5h0-156" value="" style="endArrow=classic;html=1;rounded=0;exitX=0.227;exitY=0.904;exitDx=0;exitDy=0;exitPerimeter=0;" edge="1" parent="1" source="8D82hLowt5-AXNt8W5h0-153">
          <mxGeometry width="50" height="50" relative="1" as="geometry">
            <mxPoint x="319" y="292" as="sourcePoint" />
            <mxPoint x="473" y="110" as="targetPoint" />
          </mxGeometry>
        </mxCell>
        <mxCell id="8D82hLowt5-AXNt8W5h0-157" value="" style="rhombus;whiteSpace=wrap;html=1;" vertex="1" parent="1">
          <mxGeometry x="1056" y="60" width="88" height="61" as="geometry" />
        </mxCell>
        <mxCell id="8D82hLowt5-AXNt8W5h0-158" value="Sudi" style="rhombus;whiteSpace=wrap;html=1;" vertex="1" parent="1">
          <mxGeometry x="1061.5" y="65.5" width="77" height="50" as="geometry" />
        </mxCell>
        <mxCell id="8D82hLowt5-AXNt8W5h0-159" value="" style="endArrow=classic;html=1;rounded=0;exitX=0.339;exitY=0;exitDx=0;exitDy=0;exitPerimeter=0;entryX=0.5;entryY=1;entryDx=0;entryDy=0;" edge="1" parent="1" source="9cVWXjBC3aL5t_oa88PG-25" target="8D82hLowt5-AXNt8W5h0-157">
          <mxGeometry width="50" height="50" relative="1" as="geometry">
            <mxPoint x="869" y="292" as="sourcePoint" />
            <mxPoint x="919" y="242" as="targetPoint" />
          </mxGeometry>
        </mxCell>
        <mxCell id="8D82hLowt5-AXNt8W5h0-161" value="" style="endArrow=classic;html=1;rounded=0;exitX=1;exitY=0.25;exitDx=0;exitDy=0;entryX=0;entryY=0.5;entryDx=0;entryDy=0;" edge="1" parent="1" source="8D82hLowt5-AXNt8W5h0-142" target="8D82hLowt5-AXNt8W5h0-157">
          <mxGeometry width="50" height="50" relative="1" as="geometry">
            <mxPoint x="869" y="292" as="sourcePoint" />
            <mxPoint x="919" y="242" as="targetPoint" />
          </mxGeometry>
        </mxCell>
        <mxCell id="8D82hLowt5-AXNt8W5h0-162" value="" style="endArrow=classic;html=1;rounded=0;entryX=1;entryY=0.5;entryDx=0;entryDy=0;" edge="1" parent="1" source="8D82hLowt5-AXNt8W5h0-157" target="8D82hLowt5-AXNt8W5h0-142">
          <mxGeometry width="50" height="50" relative="1" as="geometry">
            <mxPoint x="979" y="198" as="sourcePoint" />
            <mxPoint x="1067" y="102" as="targetPoint" />
          </mxGeometry>
        </mxCell>
        <mxCell id="8D82hLowt5-AXNt8W5h0-163" value="1" style="text;html=1;align=center;verticalAlign=middle;whiteSpace=wrap;rounded=0;" vertex="1" parent="1">
          <mxGeometry x="1094" y="352" width="60" height="30" as="geometry" />
        </mxCell>
        <mxCell id="8D82hLowt5-AXNt8W5h0-164" value="N" style="text;html=1;align=center;verticalAlign=middle;whiteSpace=wrap;rounded=0;" vertex="1" parent="1">
          <mxGeometry x="494" y="91" width="60" height="30" as="geometry" />
        </mxCell>
        <mxCell id="8D82hLowt5-AXNt8W5h0-165" value="" style="rhombus;whiteSpace=wrap;html=1;" vertex="1" parent="1">
          <mxGeometry x="443" y="305" width="87" height="71" as="geometry" />
        </mxCell>
        <mxCell id="8D82hLowt5-AXNt8W5h0-166" value="Igraat" style="rhombus;whiteSpace=wrap;html=1;" vertex="1" parent="1">
          <mxGeometry x="454" y="316" width="63" height="47" as="geometry" />
        </mxCell>
        <mxCell id="8D82hLowt5-AXNt8W5h0-168" value="" style="endArrow=classic;html=1;rounded=0;" edge="1" parent="1" target="8D82hLowt5-AXNt8W5h0-166">
          <mxGeometry width="50" height="50" relative="1" as="geometry">
            <mxPoint x="550" y="462" as="sourcePoint" />
            <mxPoint x="677" y="242" as="targetPoint" />
            <Array as="points">
              <mxPoint x="572" y="396" />
            </Array>
          </mxGeometry>
        </mxCell>
        <mxCell id="8D82hLowt5-AXNt8W5h0-169" value="1" style="text;html=1;align=center;verticalAlign=middle;whiteSpace=wrap;rounded=0;" vertex="1" parent="1">
          <mxGeometry x="494" y="434" width="60" height="30" as="geometry" />
        </mxCell>
        <mxCell id="8D82hLowt5-AXNt8W5h0-170" value="1" style="text;html=1;align=center;verticalAlign=middle;whiteSpace=wrap;rounded=0;" vertex="1" parent="1">
          <mxGeometry x="535.5" y="434" width="60" height="30" as="geometry" />
        </mxCell>
        <mxCell id="8D82hLowt5-AXNt8W5h0-171" value="" style="endArrow=classic;html=1;rounded=0;entryX=0.672;entryY=0.961;entryDx=0;entryDy=0;entryPerimeter=0;exitX=0.5;exitY=0;exitDx=0;exitDy=0;" edge="1" parent="1" source="8D82hLowt5-AXNt8W5h0-165" target="8D82hLowt5-AXNt8W5h0-142">
          <mxGeometry width="50" height="50" relative="1" as="geometry">
            <mxPoint x="627" y="292" as="sourcePoint" />
            <mxPoint x="677" y="242" as="targetPoint" />
          </mxGeometry>
        </mxCell>
        <mxCell id="8D82hLowt5-AXNt8W5h0-172" value="" style="endArrow=classic;html=1;rounded=0;exitX=0.5;exitY=1;exitDx=0;exitDy=0;" edge="1" parent="1" source="8D82hLowt5-AXNt8W5h0-142" target="8D82hLowt5-AXNt8W5h0-165">
          <mxGeometry width="50" height="50" relative="1" as="geometry">
            <mxPoint x="498" y="316" as="sourcePoint" />
            <mxPoint x="457" y="179" as="targetPoint" />
          </mxGeometry>
        </mxCell>
        <mxCell id="8D82hLowt5-AXNt8W5h0-173" value="1" style="text;html=1;align=center;verticalAlign=middle;whiteSpace=wrap;rounded=0;" vertex="1" parent="1">
          <mxGeometry x="434" y="163" width="60" height="30" as="geometry" />
        </mxCell>
        <mxCell id="8D82hLowt5-AXNt8W5h0-175" value="" style="rhombus;whiteSpace=wrap;html=1;" vertex="1" parent="1">
          <mxGeometry x="250" y="693" width="88" height="66" as="geometry" />
        </mxCell>
        <mxCell id="8D82hLowt5-AXNt8W5h0-176" value="" style="rhombus;whiteSpace=wrap;html=1;" vertex="1" parent="1">
          <mxGeometry x="355" y="693" width="88" height="66" as="geometry" />
        </mxCell>
        <mxCell id="8D82hLowt5-AXNt8W5h0-179" value="" style="rounded=0;whiteSpace=wrap;html=1;" vertex="1" parent="1">
          <mxGeometry x="280.5" y="798.5" width="120" height="60" as="geometry" />
        </mxCell>
        <mxCell id="8D82hLowt5-AXNt8W5h0-198" value="" style="edgeStyle=orthogonalEdgeStyle;rounded=0;orthogonalLoop=1;jettySize=auto;html=1;" edge="1" parent="1" source="8D82hLowt5-AXNt8W5h0-180" target="8D82hLowt5-AXNt8W5h0-197">
          <mxGeometry relative="1" as="geometry" />
        </mxCell>
        <mxCell id="8D82hLowt5-AXNt8W5h0-180" value="Head_to_head" style="rounded=0;whiteSpace=wrap;html=1;" vertex="1" parent="1">
          <mxGeometry x="292.5" y="806.5" width="100" height="44" as="geometry" />
        </mxCell>
        <mxCell id="8D82hLowt5-AXNt8W5h0-181" value="Igrac1" style="rhombus;whiteSpace=wrap;html=1;" vertex="1" parent="1">
          <mxGeometry x="261" y="704" width="69" height="44" as="geometry" />
        </mxCell>
        <mxCell id="8D82hLowt5-AXNt8W5h0-182" value="Igrac2" style="rhombus;whiteSpace=wrap;html=1;" vertex="1" parent="1">
          <mxGeometry x="363" y="703.75" width="69" height="44" as="geometry" />
        </mxCell>
        <mxCell id="8D82hLowt5-AXNt8W5h0-183" value="" style="endArrow=classic;html=1;rounded=0;exitX=0.5;exitY=0;exitDx=0;exitDy=0;" edge="1" parent="1" source="8D82hLowt5-AXNt8W5h0-44" target="8D82hLowt5-AXNt8W5h0-181">
          <mxGeometry width="50" height="50" relative="1" as="geometry">
            <mxPoint x="374" y="671" as="sourcePoint" />
            <mxPoint x="534" y="561" as="targetPoint" />
          </mxGeometry>
        </mxCell>
        <mxCell id="8D82hLowt5-AXNt8W5h0-184" value="" style="endArrow=classic;html=1;rounded=0;exitX=0.25;exitY=1;exitDx=0;exitDy=0;entryX=1;entryY=0;entryDx=0;entryDy=0;" edge="1" parent="1" source="9cVWXjBC3aL5t_oa88PG-23" target="8D82hLowt5-AXNt8W5h0-182">
          <mxGeometry width="50" height="50" relative="1" as="geometry">
            <mxPoint x="517" y="535" as="sourcePoint" />
            <mxPoint x="320" y="724" as="targetPoint" />
          </mxGeometry>
        </mxCell>
        <mxCell id="8D82hLowt5-AXNt8W5h0-186" value="1" style="text;html=1;align=center;verticalAlign=middle;whiteSpace=wrap;rounded=0;" vertex="1" parent="1">
          <mxGeometry x="292.5" y="673.75" width="60" height="30" as="geometry" />
        </mxCell>
        <mxCell id="8D82hLowt5-AXNt8W5h0-187" value="1" style="text;html=1;align=center;verticalAlign=middle;whiteSpace=wrap;rounded=0;" vertex="1" parent="1">
          <mxGeometry x="407.25" y="685" width="60" height="30" as="geometry" />
        </mxCell>
        <mxCell id="8D82hLowt5-AXNt8W5h0-188" value="" style="endArrow=classic;html=1;rounded=0;entryX=0.165;entryY=0.086;entryDx=0;entryDy=0;entryPerimeter=0;" edge="1" parent="1" source="8D82hLowt5-AXNt8W5h0-175" target="8D82hLowt5-AXNt8W5h0-179">
          <mxGeometry width="50" height="50" relative="1" as="geometry">
            <mxPoint x="484" y="611" as="sourcePoint" />
            <mxPoint x="534" y="561" as="targetPoint" />
          </mxGeometry>
        </mxCell>
        <mxCell id="8D82hLowt5-AXNt8W5h0-189" value="" style="endArrow=classic;html=1;rounded=0;entryX=0.932;entryY=0.019;entryDx=0;entryDy=0;entryPerimeter=0;exitX=0.5;exitY=1;exitDx=0;exitDy=0;" edge="1" parent="1" source="8D82hLowt5-AXNt8W5h0-176" target="8D82hLowt5-AXNt8W5h0-179">
          <mxGeometry width="50" height="50" relative="1" as="geometry">
            <mxPoint x="308" y="768" as="sourcePoint" />
            <mxPoint x="311" y="815" as="targetPoint" />
          </mxGeometry>
        </mxCell>
        <mxCell id="8D82hLowt5-AXNt8W5h0-190" value="" style="endArrow=classic;html=1;rounded=0;entryX=1;entryY=1;entryDx=0;entryDy=0;" edge="1" parent="1" target="8D82hLowt5-AXNt8W5h0-181">
          <mxGeometry width="50" height="50" relative="1" as="geometry">
            <mxPoint x="321.5" y="800.5" as="sourcePoint" />
            <mxPoint x="318.5" y="751" as="targetPoint" />
          </mxGeometry>
        </mxCell>
        <mxCell id="8D82hLowt5-AXNt8W5h0-191" value="" style="endArrow=classic;html=1;rounded=0;entryX=0;entryY=1;entryDx=0;entryDy=0;" edge="1" parent="1" target="8D82hLowt5-AXNt8W5h0-176">
          <mxGeometry width="50" height="50" relative="1" as="geometry">
            <mxPoint x="377" y="797" as="sourcePoint" />
            <mxPoint x="374" y="748" as="targetPoint" />
            <Array as="points">
              <mxPoint x="377" y="775" />
            </Array>
          </mxGeometry>
        </mxCell>
        <mxCell id="8D82hLowt5-AXNt8W5h0-192" value="N" style="text;html=1;align=center;verticalAlign=middle;whiteSpace=wrap;rounded=0;" vertex="1" parent="1">
          <mxGeometry x="253" y="773.5" width="60" height="30" as="geometry" />
        </mxCell>
        <mxCell id="8D82hLowt5-AXNt8W5h0-195" value="N" style="text;html=1;align=center;verticalAlign=middle;whiteSpace=wrap;rounded=0;" vertex="1" parent="1">
          <mxGeometry x="386" y="774" width="60" height="30" as="geometry" />
        </mxCell>
        <mxCell id="8D82hLowt5-AXNt8W5h0-196" value="Pobeda_igrac1" style="ellipse;whiteSpace=wrap;html=1;" vertex="1" parent="1">
          <mxGeometry x="213" y="902" width="99" height="55" as="geometry" />
        </mxCell>
        <mxCell id="8D82hLowt5-AXNt8W5h0-197" value="Pobeda_igrac2" style="ellipse;whiteSpace=wrap;html=1;" vertex="1" parent="1">
          <mxGeometry x="355" y="902" width="99" height="55" as="geometry" />
        </mxCell>
        <mxCell id="8D82hLowt5-AXNt8W5h0-199" value="" style="endArrow=classic;html=1;rounded=0;exitX=0.345;exitY=1.027;exitDx=0;exitDy=0;exitPerimeter=0;" edge="1" parent="1" source="8D82hLowt5-AXNt8W5h0-180" target="8D82hLowt5-AXNt8W5h0-196">
          <mxGeometry width="50" height="50" relative="1" as="geometry">
            <mxPoint x="341" y="891" as="sourcePoint" />
            <mxPoint x="589" y="781" as="targetPoint" />
          </mxGeometry>
        </mxCell>
        <mxCell id="8D82hLowt5-AXNt8W5h0-201" value="Datum" style="ellipse;whiteSpace=wrap;html=1;" vertex="1" parent="1">
          <mxGeometry x="1171" y="759" width="110" height="66" as="geometry" />
        </mxCell>
        <mxCell id="8D82hLowt5-AXNt8W5h0-204" value="" style="edgeStyle=orthogonalEdgeStyle;rounded=0;orthogonalLoop=1;jettySize=auto;html=1;" edge="1" parent="1" source="8D82hLowt5-AXNt8W5h0-202" target="8D82hLowt5-AXNt8W5h0-201">
          <mxGeometry relative="1" as="geometry" />
        </mxCell>
        <mxCell id="8D82hLowt5-AXNt8W5h0-202" value="" style="rounded=0;whiteSpace=wrap;html=1;" vertex="1" parent="1">
          <mxGeometry x="1161" y="651.75" width="120" height="60" as="geometry" />
        </mxCell>
        <mxCell id="8D82hLowt5-AXNt8W5h0-203" value="Trening" style="rounded=0;whiteSpace=wrap;html=1;" vertex="1" parent="1">
          <mxGeometry x="1167" y="662.5" width="108" height="44" as="geometry" />
        </mxCell>
        <mxCell id="8D82hLowt5-AXNt8W5h0-205" value="Den" style="ellipse;whiteSpace=wrap;html=1;" vertex="1" parent="1">
          <mxGeometry x="1090" y="836" width="99" height="66" as="geometry" />
        </mxCell>
        <mxCell id="8D82hLowt5-AXNt8W5h0-206" value="Godina" style="ellipse;whiteSpace=wrap;html=1;" vertex="1" parent="1">
          <mxGeometry x="1331" y="858.5" width="99" height="66" as="geometry" />
        </mxCell>
        <mxCell id="8D82hLowt5-AXNt8W5h0-207" value="Mesec" style="ellipse;whiteSpace=wrap;html=1;" vertex="1" parent="1">
          <mxGeometry x="1210" y="869" width="99" height="66" as="geometry" />
        </mxCell>
        <mxCell id="8D82hLowt5-AXNt8W5h0-208" value="Vreme" style="ellipse;whiteSpace=wrap;html=1;" vertex="1" parent="1">
          <mxGeometry x="1342" y="784.5" width="99" height="66" as="geometry" />
        </mxCell>
        <mxCell id="8D82hLowt5-AXNt8W5h0-209" value="" style="endArrow=classic;html=1;rounded=0;exitX=0;exitY=1;exitDx=0;exitDy=0;entryX=1;entryY=0;entryDx=0;entryDy=0;" edge="1" parent="1" source="8D82hLowt5-AXNt8W5h0-201" target="8D82hLowt5-AXNt8W5h0-205">
          <mxGeometry width="50" height="50" relative="1" as="geometry">
            <mxPoint x="814" y="787" as="sourcePoint" />
            <mxPoint x="864" y="737" as="targetPoint" />
          </mxGeometry>
        </mxCell>
        <mxCell id="8D82hLowt5-AXNt8W5h0-210" value="" style="endArrow=classic;html=1;rounded=0;entryX=0.333;entryY=0.04;entryDx=0;entryDy=0;entryPerimeter=0;" edge="1" parent="1" target="8D82hLowt5-AXNt8W5h0-207">
          <mxGeometry width="50" height="50" relative="1" as="geometry">
            <mxPoint x="1232" y="826" as="sourcePoint" />
            <mxPoint x="1186" y="857" as="targetPoint" />
          </mxGeometry>
        </mxCell>
        <mxCell id="8D82hLowt5-AXNt8W5h0-211" value="" style="endArrow=classic;html=1;rounded=0;exitX=1;exitY=1;exitDx=0;exitDy=0;entryX=0;entryY=0;entryDx=0;entryDy=0;" edge="1" parent="1" source="8D82hLowt5-AXNt8W5h0-201" target="8D82hLowt5-AXNt8W5h0-206">
          <mxGeometry width="50" height="50" relative="1" as="geometry">
            <mxPoint x="1209" y="837" as="sourcePoint" />
            <mxPoint x="1197" y="868" as="targetPoint" />
          </mxGeometry>
        </mxCell>
        <mxCell id="8D82hLowt5-AXNt8W5h0-212" value="" style="endArrow=classic;html=1;rounded=0;exitX=1;exitY=0.5;exitDx=0;exitDy=0;entryX=0;entryY=0.5;entryDx=0;entryDy=0;" edge="1" parent="1" source="8D82hLowt5-AXNt8W5h0-201" target="8D82hLowt5-AXNt8W5h0-208">
          <mxGeometry width="50" height="50" relative="1" as="geometry">
            <mxPoint x="1220" y="848" as="sourcePoint" />
            <mxPoint x="1208" y="879" as="targetPoint" />
          </mxGeometry>
        </mxCell>
        <mxCell id="8D82hLowt5-AXNt8W5h0-213" value="Trenira" style="rhombus;whiteSpace=wrap;html=1;" vertex="1" parent="1">
          <mxGeometry x="1067" y="571" width="94" height="78" as="geometry" />
        </mxCell>
        <mxCell id="8D82hLowt5-AXNt8W5h0-214" value="Trenira" style="rhombus;whiteSpace=wrap;html=1;" vertex="1" parent="1">
          <mxGeometry x="1075.5" y="582" width="77" height="55" as="geometry" />
        </mxCell>
        <mxCell id="8D82hLowt5-AXNt8W5h0-216" value="1" style="text;html=1;align=center;verticalAlign=middle;whiteSpace=wrap;rounded=0;" vertex="1" parent="1">
          <mxGeometry x="985" y="582" width="60" height="30" as="geometry" />
        </mxCell>
        <mxCell id="8D82hLowt5-AXNt8W5h0-217" value="" style="endArrow=classic;html=1;rounded=0;exitX=1;exitY=0.5;exitDx=0;exitDy=0;entryX=0.5;entryY=0;entryDx=0;entryDy=0;" edge="1" parent="1" source="8D82hLowt5-AXNt8W5h0-213" target="8D82hLowt5-AXNt8W5h0-202">
          <mxGeometry width="50" height="50" relative="1" as="geometry">
            <mxPoint x="814" y="787" as="sourcePoint" />
            <mxPoint x="864" y="737" as="targetPoint" />
          </mxGeometry>
        </mxCell>
        <mxCell id="8D82hLowt5-AXNt8W5h0-218" value="N" style="text;html=1;align=center;verticalAlign=middle;whiteSpace=wrap;rounded=0;" vertex="1" parent="1">
          <mxGeometry x="1189" y="612" width="60" height="30" as="geometry" />
        </mxCell>
        <mxCell id="8D82hLowt5-AXNt8W5h0-222" value="" style="endArrow=classic;html=1;rounded=0;entryX=0.083;entryY=0.358;entryDx=0;entryDy=0;entryPerimeter=0;" edge="1" parent="1" target="8D82hLowt5-AXNt8W5h0-223">
          <mxGeometry width="50" height="50" relative="1" as="geometry">
            <mxPoint x="605" y="517" as="sourcePoint" />
            <mxPoint x="880" y="880" as="targetPoint" />
            <Array as="points">
              <mxPoint x="770" y="682" />
              <mxPoint x="825" y="792" />
            </Array>
          </mxGeometry>
        </mxCell>
        <mxCell id="8D82hLowt5-AXNt8W5h0-223" value="" style="rhombus;whiteSpace=wrap;html=1;" vertex="1" parent="1">
          <mxGeometry x="895" y="844.5" width="84" height="68.5" as="geometry" />
        </mxCell>
        <mxCell id="8D82hLowt5-AXNt8W5h0-224" value="Igral" style="rhombus;whiteSpace=wrap;html=1;" vertex="1" parent="1">
          <mxGeometry x="906" y="855.5" width="62" height="46.5" as="geometry" />
        </mxCell>
        <mxCell id="8D82hLowt5-AXNt8W5h0-226" value="" style="endArrow=classic;html=1;rounded=0;exitX=1;exitY=0.5;exitDx=0;exitDy=0;" edge="1" parent="1" source="8D82hLowt5-AXNt8W5h0-223">
          <mxGeometry width="50" height="50" relative="1" as="geometry">
            <mxPoint x="814" y="677" as="sourcePoint" />
            <mxPoint x="1155" y="704" as="targetPoint" />
          </mxGeometry>
        </mxCell>
        <mxCell id="8D82hLowt5-AXNt8W5h0-227" value="N" style="text;html=1;align=center;verticalAlign=middle;whiteSpace=wrap;rounded=0;" vertex="1" parent="1">
          <mxGeometry x="1101" y="685" width="60" height="30" as="geometry" />
        </mxCell>
        <mxCell id="8D82hLowt5-AXNt8W5h0-228" value="1" style="text;html=1;align=center;verticalAlign=middle;whiteSpace=wrap;rounded=0;" vertex="1" parent="1">
          <mxGeometry x="646" y="588" width="60" height="30" as="geometry" />
        </mxCell>
        <mxCell id="8D82hLowt5-AXNt8W5h0-230" value="" style="endArrow=classic;html=1;rounded=0;exitX=1;exitY=0;exitDx=0;exitDy=0;" edge="1" parent="1" source="8D82hLowt5-AXNt8W5h0-227" target="8D82hLowt5-AXNt8W5h0-223">
          <mxGeometry width="50" height="50" relative="1" as="geometry">
            <mxPoint x="990" y="890" as="sourcePoint" />
            <mxPoint x="1078" y="825" as="targetPoint" />
          </mxGeometry>
        </mxCell>
        <mxCell id="8D82hLowt5-AXNt8W5h0-231" value="" style="rhombus;whiteSpace=wrap;html=1;" vertex="1" parent="1">
          <mxGeometry x="507.5" y="968" width="88" height="66" as="geometry" />
        </mxCell>
        <mxCell id="8D82hLowt5-AXNt8W5h0-232" value="Odrzuva" style="rhombus;whiteSpace=wrap;html=1;" vertex="1" parent="1">
          <mxGeometry x="518.5" y="979" width="64.5" height="44" as="geometry" />
        </mxCell>
        <mxCell id="8D82hLowt5-AXNt8W5h0-233" value="" style="endArrow=classic;html=1;rounded=0;exitX=0.25;exitY=1;exitDx=0;exitDy=0;entryX=1;entryY=0.5;entryDx=0;entryDy=0;" edge="1" parent="1" source="8D82hLowt5-AXNt8W5h0-203" target="8D82hLowt5-AXNt8W5h0-231">
          <mxGeometry width="50" height="50" relative="1" as="geometry">
            <mxPoint x="737" y="809" as="sourcePoint" />
            <mxPoint x="924" y="990" as="targetPoint" />
            <Array as="points">
              <mxPoint x="957" y="968" />
            </Array>
          </mxGeometry>
        </mxCell>
        <mxCell id="8D82hLowt5-AXNt8W5h0-234" value="" style="endArrow=classic;html=1;rounded=0;" edge="1" parent="1" source="8D82hLowt5-AXNt8W5h0-232">
          <mxGeometry width="50" height="50" relative="1" as="geometry">
            <mxPoint x="1056" y="968" as="sourcePoint" />
            <mxPoint x="1177" y="715" as="targetPoint" />
            <Array as="points">
              <mxPoint x="946" y="957" />
            </Array>
          </mxGeometry>
        </mxCell>
        <mxCell id="8D82hLowt5-AXNt8W5h0-235" value="" style="endArrow=classic;html=1;rounded=0;exitX=0;exitY=0.5;exitDx=0;exitDy=0;entryX=0;entryY=0.5;entryDx=0;entryDy=0;" edge="1" parent="1" source="8D82hLowt5-AXNt8W5h0-231" target="8D82hLowt5-AXNt8W5h0-112">
          <mxGeometry width="50" height="50" relative="1" as="geometry">
            <mxPoint x="11" y="1001" as="sourcePoint" />
            <mxPoint y="583" as="targetPoint" />
            <Array as="points">
              <mxPoint y="1001" />
              <mxPoint y="781" />
            </Array>
          </mxGeometry>
        </mxCell>
        <mxCell id="8D82hLowt5-AXNt8W5h0-236" value="N" style="text;html=1;align=center;verticalAlign=middle;whiteSpace=wrap;rounded=0;" vertex="1" parent="1">
          <mxGeometry x="1161" y="718.75" width="60" height="30" as="geometry" />
        </mxCell>
        <mxCell id="8D82hLowt5-AXNt8W5h0-237" value="1" style="text;html=1;align=center;verticalAlign=middle;whiteSpace=wrap;rounded=0;" vertex="1" parent="1">
          <mxGeometry x="-16" y="545.75" width="60" height="30" as="geometry" />
        </mxCell>
      </root>
    </mxGraphModel>
  </diagram>
</mxfile>
